<svg width="52" height="50" viewBox="0 0 72 72" fill="none" xmlns="http://www.w3.org/2000/svg">
<path d="M36 67.5C29.7699 67.5 23.6797 65.6526 18.4995 62.1913C13.3194 58.73 9.28197 53.8104 6.89781 48.0545C4.51365 42.2987 3.88984 35.9651 5.10528 29.8547C6.32071 23.7443 9.3208 18.1315 13.7261 13.7261C18.1315 9.3208 23.7443 6.32071 29.8547 5.10528C35.9651 3.88984 42.2987 4.51365 48.0545 6.89781C53.8104 9.28197 58.73 13.3194 62.1913 18.4995C65.6526 23.6797 67.5 29.7699 67.5 36C67.5 44.3543 64.1813 52.3665 58.2739 58.2739C52.3665 64.1813 44.3543 67.5 36 67.5ZM36 9.00001C30.6599 9.00001 25.4397 10.5835 20.9996 13.5503C16.5595 16.5171 13.0988 20.734 11.0553 25.6676C9.0117 30.6012 8.47701 36.03 9.51881 41.2674C10.5606 46.5049 13.1321 51.3159 16.9081 55.0919C20.6841 58.8679 25.4951 61.4394 30.7326 62.4812C35.9701 63.523 41.3989 62.9883 46.3325 60.9448C51.2661 58.9012 55.4829 55.4405 58.4497 51.0004C61.4165 46.5603 63 41.3401 63 36C63 28.8392 60.1554 21.9716 55.0919 16.9081C50.0284 11.8446 43.1609 9.00001 36 9.00001Z" fill="#144496"/>
<path d="M46.3275 49.5L33.75 36.9225V15.75H38.25V35.055L49.5 46.3275L46.3275 49.5Z" fill="#144496"/>
</svg>
