<svg width="65" height="65" viewBox="0 0 100 100" fill="none" xmlns="http://www.w3.org/2000/svg">
<path d="M55.0586 50L80.6933 19.4434C81.123 18.9355 80.7617 18.1641 80.0976 18.1641H72.3047C71.8457 18.1641 71.4062 18.3691 71.1035 18.7207L49.9609 43.9258L28.8183 18.7207C28.5254 18.3691 28.0859 18.1641 27.6172 18.1641H19.8242C19.1601 18.1641 18.7988 18.9355 19.2285 19.4434L44.8633 50L19.2285 80.5566C19.1323 80.6698 19.0705 80.8083 19.0506 80.9555C19.0307 81.1027 19.0534 81.2526 19.1161 81.3873C19.1789 81.522 19.2789 81.6359 19.4044 81.7154C19.5299 81.7949 19.6756 81.8368 19.8242 81.8359H27.6172C28.0762 81.8359 28.5156 81.6309 28.8183 81.2793L49.9609 56.0742L71.1035 81.2793C71.3965 81.6309 71.8359 81.8359 72.3047 81.8359H80.0976C80.7617 81.8359 81.123 81.0645 80.6933 80.5566L55.0586 50Z" fill="#FEFEFB"/>
</svg>
