<svg width="100" height="100" viewBox="0 0 100 100" fill="none" xmlns="http://www.w3.org/2000/svg">
<path d="M52.375 47.25V32.25H44.875V36H48.625V47.25H43V51H58V47.25H52.375ZM50.5 21C49.9437 21 49.4 21.1649 48.9375 21.474C48.4749 21.783 48.1145 22.2223 47.9016 22.7362C47.6887 23.2501 47.633 23.8156 47.7415 24.3612C47.8501 24.9068 48.1179 25.4079 48.5113 25.8012C48.9046 26.1946 49.4057 26.4624 49.9513 26.571C50.4969 26.6795 51.0624 26.6238 51.5763 26.4109C52.0902 26.198 52.5295 25.8376 52.8385 25.375C53.1475 24.9125 53.3125 24.3688 53.3125 23.8125C53.3125 23.0666 53.0162 22.3512 52.4887 21.8238C51.9613 21.2963 51.2459 21 50.5 21Z" fill="#144496"/>
<path d="M50.5 62C45.2588 62 40.1353 60.4751 35.7774 57.6182C31.4195 54.7613 28.0229 50.7006 26.0172 45.9498C24.0115 41.1989 23.4867 35.9712 24.5092 30.9277C25.5317 25.8842 28.0556 21.2514 31.7617 17.6152C35.4678 13.9791 40.1896 11.5028 45.3301 10.4996C50.4706 9.49638 55.7989 10.0113 60.6411 11.9791C65.4834 13.947 69.6221 17.2795 72.5339 21.5552C75.4458 25.8309 77 30.8577 77 36C77 42.8956 74.208 49.5088 69.2383 54.3848C64.2686 59.2607 57.5282 62 50.5 62ZM50.5 13.7143C46.0075 13.7143 41.616 15.0213 37.8806 17.4701C34.1453 19.9189 31.2339 23.3995 29.5147 27.4716C27.7956 31.5438 27.3457 36.0247 28.2222 40.3477C29.0986 44.6707 31.2619 48.6417 34.4386 51.7584C37.6152 54.8751 41.6625 56.9976 46.0687 57.8575C50.4748 58.7174 55.0419 58.2761 59.1924 56.5893C63.3429 54.9026 66.8904 52.0462 69.3862 48.3813C71.8821 44.7164 73.2143 40.4077 73.2143 36C73.2143 30.0895 70.8212 24.421 66.5614 20.2416C62.3017 16.0622 56.5242 13.7143 50.5 13.7143Z" fill="#144496"/>
</svg>
