<svg width="41" height="48" viewBox="0 0 70 83" fill="none" xmlns="http://www.w3.org/2000/svg">
<path d="M30.6797 81.135C21.1641 70.7005 0 45.4109 0 31.2058C0 13.9711 15.6698 0 35 0C54.3229 0 70 13.9711 70 31.2058C70 45.4109 48.6719 70.7005 39.3203 81.135C37.0781 83.6217 32.9219 83.6217 30.6797 81.135ZM35 41.6077C41.4349 41.6077 46.6667 36.9431 46.6667 31.2058C46.6667 25.4684 41.4349 20.8038 35 20.8038C28.5651 20.8038 23.3333 25.4684 23.3333 31.2058C23.3333 36.9431 28.5651 41.6077 35 41.6077Z" fill="#144496"/>
</svg>
