<svg width="69" height="61" viewBox="0 0 69 61" fill="none" xmlns="http://www.w3.org/2000/svg">
<path d="M59.1015 14.2194L51.9252 7.88115C51.0492 7.10674 49.8768 6.67188 48.6369 6.67188C47.3971 6.67188 46.2246 7.10078 45.3486 7.88115L37.6198 14.702C36.7438 15.4764 36.2519 16.5188 36.2519 17.6149C36.2519 18.717 36.7371 19.7476 37.6198 20.5279L43.6573 25.8714C42.2819 28.7045 40.3057 31.2786 37.8354 33.4547C35.3625 35.6528 32.4718 37.3863 29.2644 38.6135L23.2269 33.27C22.3509 32.4956 21.1784 32.0607 19.9386 32.0607C19.327 32.0587 18.7212 32.1647 18.1565 32.3723C17.5919 32.58 17.0798 32.8852 16.6503 33.27L8.91475 40.0908C8.03877 40.8652 7.54688 41.9077 7.54688 43.0038C7.54688 44.1059 8.03203 45.1364 8.91475 45.9168L16.0843 52.2551C17.5802 53.5775 19.6421 54.3341 21.7579 54.3341C22.1959 54.3341 22.6204 54.3043 23.0517 54.2388C31.9731 52.9401 40.8272 48.7404 47.9766 42.426C55.1191 36.0996 59.8629 28.2721 61.3453 20.379C61.7698 18.1392 60.9208 15.8338 59.1015 14.2194ZM56.5679 19.6701C55.2539 26.6935 50.9818 33.6989 44.5468 39.3879C38.1117 45.0769 30.1942 48.8536 22.2498 50.0152C21.2525 50.1642 20.2283 49.8663 19.5006 49.2289L12.4591 43.0038L19.9251 36.3975L27.9976 43.5459L28.0582 43.5995L29.5137 43.123C33.9268 41.6885 37.9343 39.4229 41.2584 36.4831C44.5826 33.5433 47.1439 29.9997 48.7649 26.0978L49.304 24.811L41.1642 17.6209L48.6302 11.0146L55.6717 17.2396C56.3994 17.883 56.7363 18.7885 56.5679 19.6701Z" fill="#144496"/>
</svg>
