<svg width="58" height="48" viewBox="0 0 59 45" fill="none" xmlns="http://www.w3.org/2000/svg">
<path d="M56.8929 0H2.10714C0.941629 0 0 0.914062 0 2.04545V42.9545C0 44.0859 0.941629 45 2.10714 45H56.8929C58.0584 45 59 44.0859 59 42.9545V2.04545C59 0.914062 58.0584 0 56.8929 0ZM54.2589 7.08239V40.3977H4.74107V7.08239L2.92366 5.7081L5.5115 2.48011L8.3298 4.60866H50.6768L53.4951 2.48011L56.0829 5.7081L54.2589 7.08239ZM50.6768 4.60227L29.5 20.5824L8.32321 4.60227L5.50491 2.47372L2.91708 5.7017L4.73449 7.07599L27.2282 24.0533C27.8751 24.5411 28.671 24.8059 29.4901 24.8059C30.3093 24.8059 31.1051 24.5411 31.752 24.0533L54.2589 7.08239L56.0763 5.7081L53.4885 2.48011L50.6768 4.60227Z" fill="#144496"/>
</svg>
