<svg width="56" height="50" viewBox="0 0 66 64" fill="none" xmlns="http://www.w3.org/2000/svg">
<path d="M33 0C14.8038 0 0 14.3552 0 32C0 49.6448 14.8038 64 33 64C51.1962 64 66 49.6448 66 32C66 14.3552 51.1962 0 33 0ZM59.1723 28.8H50.0511C49.644 21.796 47.6233 14.9695 44.1375 8.8224C48.1774 10.653 51.6742 13.4445 54.3029 16.9373C56.9315 20.4302 58.6066 24.5109 59.1723 28.8ZM34.749 6.4864C38.1645 10.8512 42.7581 18.5824 43.4181 28.8H23.199C23.6577 20.4928 26.4792 12.7104 31.2873 6.4832C31.8549 6.4512 32.4225 6.4 33 6.4C33.5907 6.4 34.1682 6.4512 34.749 6.4864ZM22.0704 8.7264C18.8232 14.7776 16.9488 21.6384 16.599 28.8H6.8277C7.39783 24.4731 9.09689 20.3587 11.7641 16.8461C14.4314 13.3335 17.9787 10.5388 22.0704 8.7264ZM6.8277 35.2H16.6419C17.0907 42.8128 18.8364 49.5296 21.7767 55.136C17.7579 53.299 14.2815 50.5094 11.6687 47.0249C9.05583 43.5404 7.39089 39.4735 6.8277 35.2ZM31.185 57.5136C26.5617 52.08 23.8326 44.4672 23.2353 35.2H43.4082C42.7218 44.0736 39.7221 51.8272 34.8183 57.5104C34.2177 57.5488 33.6171 57.6 33 57.6C32.3862 57.6 31.7889 57.5488 31.185 57.5136ZM44.4213 55.0432C47.5728 49.3024 49.4967 42.56 50.0016 35.2H59.169C58.6121 39.4377 56.9711 43.473 54.3953 46.9387C51.8196 50.4044 48.3909 53.1904 44.4213 55.0432Z" fill="#144496"/>
</svg>
