<svg width="40" height="38" viewBox="0 0 88 88" fill="none" xmlns="http://www.w3.org/2000/svg">
<path d="M44 0.25C19.8398 0.25 0.25 19.8398 0.25 44C0.25 68.1602 19.8398 87.75 44 87.75C68.1602 87.75 87.75 68.1602 87.75 44C87.75 19.8398 68.1602 0.25 44 0.25ZM61.2363 57.4473L58.4434 61.2559C58.3826 61.3388 58.3061 61.4089 58.2181 61.4622C58.1302 61.5154 58.0326 61.5508 57.931 61.5662C57.8294 61.5816 57.7257 61.5768 57.6259 61.5521C57.5261 61.5273 57.4322 61.483 57.3496 61.4219L41.1973 49.6445C41.0966 49.5723 41.0148 49.4769 40.9588 49.3664C40.9027 49.256 40.874 49.1336 40.875 49.0098V22.125C40.875 21.6953 41.2266 21.3438 41.6562 21.3438H46.3535C46.7832 21.3438 47.1348 21.6953 47.1348 22.125V46.2949L61.0605 56.3633C61.4121 56.6074 61.4902 57.0957 61.2363 57.4473Z" fill="#144496"/>
</svg>
