<svg width="50" height="50" viewBox="0 0 100 100" fill="none" xmlns="http://www.w3.org/2000/svg">
<path d="M86.4844 22.4805L76.084 12.0898C75.3503 11.353 74.4783 10.7683 73.518 10.3694C72.5578 9.97058 71.5281 9.76538 70.4883 9.76563C68.3691 9.76563 66.377 10.5957 64.8828 12.0898L53.6914 23.2812C52.9545 24.0149 52.3699 24.8869 51.971 25.8472C51.5721 26.8075 51.3669 27.8371 51.3672 28.877C51.3672 30.9961 52.1973 32.9883 53.6914 34.4824L61.875 42.666C59.9594 46.8883 57.2961 50.7294 54.0137 54.0039C50.7395 57.2943 46.8987 59.9673 42.6758 61.8945L34.4922 53.7109C33.7585 52.9741 32.8865 52.3894 31.9262 51.9905C30.966 51.5917 29.9363 51.3865 28.8965 51.3867C26.7774 51.3867 24.7852 52.2168 23.291 53.7109L12.0898 64.8926C11.3521 65.6276 10.7669 66.5012 10.368 67.4632C9.96914 68.4252 9.76441 69.4566 9.76563 70.498C9.76563 72.6172 10.5957 74.6094 12.0898 76.1035L22.4707 86.4844C24.8535 88.877 28.1445 90.2344 31.5234 90.2344C32.2363 90.2344 32.9199 90.1758 33.5938 90.0586C46.7578 87.8906 59.8145 80.8887 70.3516 70.3613C80.8789 59.8438 87.8711 46.7969 90.0684 33.5938C90.7324 29.5605 89.3945 25.4102 86.4844 22.4805V22.4805Z" fill="#144496"/>
</svg>
